<?xml version="1.0" encoding="UTF-8" standalone="no"?>
<svg xmlns="http://www.w3.org/2000/svg" width="1280" height="316" viewBox="0 0 1280 316">
<desc id="desc1">Created with Fabric.js 5.3.0</desc>
<defs id="defs1">
</defs>
<g
   transform="translate(640,512)"
   id="background-logo">
<rect
   style="opacity:1;fill:#ffffff;fill-opacity:0;fill-rule:nonzero;stroke:none;stroke-width:0;stroke-linecap:butt;stroke-linejoin:miter;stroke-miterlimit:4;stroke-dasharray:none;stroke-dashoffset:0"
   paint-order="stroke"
   x="-640"
   y="-512"
   rx="0"
   ry="0"
   width="1280"
   height="1024"
   id="rect1" />
</g>
<g
   transform="matrix(1.6780864,0,0,1.6780864,184.16138,156.79178)"
   id="logo-logo">
<g
   paint-order="stroke"
   id="g13">
		<g
   transform="matrix(1.5623421,0,0,1.5623421,-0.00781171,44.784537)"
   id="g2">
<radialGradient
   id="SVGID_2_47539"
   gradientUnits="userSpaceOnUse"
   cx="186.83"
   cy="189.8"
   r="74.889999"
   fx="186.83"
   fy="189.8">
<stop
   offset="0%"
   style="stop-color:rgb(13,60,128);stop-opacity: 1"
   id="stop1" />
<stop
   offset="99%"
   style="stop-color:rgb(0,12,56);stop-opacity: 1"
   id="stop2" />
</radialGradient>
<path
   style="opacity:1;fill:url(#SVGID_2_47539);fill-rule:nonzero;stroke:none;stroke-width:0;stroke-linecap:butt;stroke-linejoin:miter;stroke-miterlimit:4;stroke-dasharray:none;stroke-dashoffset:0"
   paint-order="stroke"
   transform="translate(-187.495,-178.67)"
   d="m 187.5,154.28 c -3.74,0.51 -7.32,1.23 -10.75,2.14 -23.21,8.38 -42.33,24.03 -51.88,46.64 h 28.6 c 0.76,-4.91 3.7,-9.69 9.82,-13.06 7.41,-6.02 17.15,-9.89 24.21,-10.34 7.88,0.5 19.09,5.26 26.68,12.52 4.46,2.22 6.6,6.69 7.34,10.88 h 28.6 c -9.94,-23.52 -28.34,-39.98 -54.98,-47.4 -2.44,-0.68 -5.02,-1.02 -7.65,-1.38 z"
   stroke-linecap="round"
   id="path2" />
</g>
		<g
   transform="matrix(1.5623421,0,0,1.5623421,0,44.80016)"
   id="g4">
<radialGradient
   id="SVGID_3_47540"
   gradientUnits="userSpaceOnUse"
   cx="188.00999"
   cy="159.33"
   r="48.040001"
   fx="188.00999"
   fy="159.33">
<stop
   offset="0%"
   style="stop-color:rgb(13,60,128);stop-opacity: 1"
   id="stop3" />
<stop
   offset="99%"
   style="stop-color:rgb(0,12,56);stop-opacity: 1"
   id="stop4" />
</radialGradient>
<path
   style="opacity:1;fill:url(#SVGID_3_47540);fill-rule:nonzero;stroke:none;stroke-width:0;stroke-linecap:butt;stroke-linejoin:miter;stroke-miterlimit:4;stroke-dasharray:none;stroke-dashoffset:0"
   paint-order="stroke"
   transform="translate(-187.5,-178.68)"
   d="m 222.49,201.69 c -5.24,-13.49 -23.64,-22.68 -34.9,-23.39 h -0.09 c 0,0 -0.09,0 -0.09,0 -11.27,0.71 -29.66,9.9 -34.9,23.39 h -25.54 c 11.75,-26.26 32.63,-42.15 60.53,-46.02 27.9,3.87 48.78,19.76 60.53,46.02 z"
   stroke-linecap="round"
   id="path4" />
</g>
		<g
   transform="matrix(1.5623421,0,0,1.5623421,-0.00781171,45.885988)"
   id="g6">
<radialGradient
   id="SVGID_4_47541"
   gradientUnits="userSpaceOnUse"
   cx="189.36"
   cy="146.67"
   r="61.93"
   fx="189.36"
   fy="146.67">
<stop
   offset="1%"
   style="stop-color:rgb(8,59,106);stop-opacity: 1"
   id="stop5" />
<stop
   offset="100%"
   style="stop-color:rgb(0,11,55);stop-opacity: 1"
   id="stop6" />
</radialGradient>
<path
   style="opacity:1;fill:url(#SVGID_4_47541);fill-rule:nonzero;stroke:none;stroke-width:0;stroke-linecap:butt;stroke-linejoin:miter;stroke-miterlimit:4;stroke-dasharray:none;stroke-dashoffset:0"
   paint-order="stroke"
   transform="translate(-187.495,-179.375)"
   d="m 153.47,203.06 h -28.6 c 3.83,-9.07 10.44,-18.93 18.56,-27.86 8.87,-8.7 19.93,-15.21 33.32,-18.77 -10.21,9.22 -12.81,23.6 -13.46,33.58 -4.5,3.65 -8.14,8.1 -9.82,13.05 z m 95.04,-3.61 c -0.1,-0.21 -0.2,-0.42 -0.3,-0.63 -0.54,-1.14 -1.11,-2.26 -1.7,-3.36 -0.09,-0.17 -0.18,-0.33 -0.27,-0.5 -0.03,-0.05 -0.05,-0.09 -0.07,-0.14 -0.61,-1.13 -1.24,-2.25 -1.89,-3.34 -0.04,-0.07 -0.08,-0.13 -0.12,-0.2 -0.64,-1.06 -1.3,-2.1 -1.98,-3.13 -0.11,-0.17 -0.22,-0.34 -0.34,-0.51 -0.69,-1.03 -1.4,-2.03 -2.13,-3.02 -0.05,-0.06 -0.1,-0.13 -0.14,-0.19 -0.1,-0.13 -0.2,-0.26 -0.29,-0.39 -0.75,-1 -1.51,-1.98 -2.31,-2.94 -0.08,-0.1 -0.17,-0.19 -0.25,-0.29 -0.77,-0.92 -1.56,-1.82 -2.37,-2.7 -0.01,-0.01 -0.02,-0.03 -0.04,-0.04 -0.1,-0.11 -0.21,-0.23 -0.31,-0.34 -0.84,-0.9 -1.7,-1.78 -2.58,-2.64 -0.17,-0.17 -0.35,-0.34 -0.52,-0.5 -0.89,-0.85 -1.8,-1.69 -2.73,-2.5 -0.11,-0.09 -0.22,-0.18 -0.33,-0.28 -0.02,-0.01 -0.04,-0.03 -0.05,-0.04 -0.91,-0.78 -1.85,-1.54 -2.8,-2.28 -0.1,-0.08 -0.2,-0.16 -0.31,-0.24 -0.99,-0.76 -2.02,-1.49 -3.06,-2.2 -0.11,-0.07 -0.21,-0.15 -0.32,-0.22 -0.09,-0.06 -0.18,-0.12 -0.28,-0.19 -1.04,-0.69 -2.09,-1.37 -3.17,-2.01 -0.04,-0.02 -0.08,-0.05 -0.12,-0.07 -0.13,-0.08 -0.26,-0.15 -0.39,-0.22 -1.08,-0.63 -2.19,-1.25 -3.31,-1.83 0,0 -0.01,0 -0.02,-0.01 -0.06,-0.03 -0.12,-0.07 -0.19,-0.1 -1.16,-0.6 -2.35,-1.16 -3.55,-1.7 -0.11,-0.05 -0.21,-0.09 -0.32,-0.14 -0.12,-0.05 -0.23,-0.1 -0.35,-0.16 -1.19,-0.52 -2.39,-1.01 -3.62,-1.48 -0.04,-0.02 -0.09,-0.03 -0.13,-0.05 -3.4,-1.28 -6.97,-2.34 -10.71,-3.19 11.36,7.31 16.06,25.12 19.04,36.52 2.84,2.71 5.17,5.77 6.64,9.09 0.05,0.11 0.1,0.23 0.15,0.34 0,0 0,0 0,0 0.2,0.48 0.39,0.96 0.55,1.44 h 28.6 c -0.52,-1.22 -1.06,-2.42 -1.62,-3.61 z"
   stroke-linecap="round"
   id="path6" />
</g>
		<g
   transform="matrix(1.5623421,0,0,1.5623421,0,-0.00781171)"
   id="g9">
<linearGradient
   id="SVGID_5_47542"
   gradientUnits="userSpaceOnUse"
   x1="149.34"
   y1="96.160004"
   x2="199.82001"
   y2="227.75">
<stop
   offset="0%"
   style="stop-color:rgb(34,163,220);stop-opacity: 1"
   id="stop7" />
<stop
   offset="50%"
   style="stop-color:rgb(16,61,128);stop-opacity: 1"
   id="stop8" />
<stop
   offset="100%"
   style="stop-color:rgb(0,25,89);stop-opacity: 1"
   id="stop9" />
</linearGradient>
<path
   style="opacity:1;fill:url(#SVGID_5_47542);fill-rule:nonzero;stroke:none;stroke-width:0;stroke-linecap:butt;stroke-linejoin:miter;stroke-miterlimit:4;stroke-dasharray:none;stroke-dashoffset:0"
   paint-order="stroke"
   transform="translate(-187.5,-150)"
   d="m 187.5,96.94 c 32.55,20.83 62.63,71.89 62.63,106.12 h -28.6 c 0,-25.67 -21.94,-55.06 -34.03,-67.32 -12.08,12.27 -34.03,41.65 -34.03,67.32 h -28.6 c 0,-34.23 30.08,-85.3 62.63,-106.12 z"
   stroke-linecap="round"
   id="path9" />
</g>
		<g
   transform="matrix(1.5623421,0,0,1.5623421,0,0.20310447)"
   id="g12">
<linearGradient
   id="SVGID_6_47543"
   gradientUnits="userSpaceOnUse"
   x1="188.74001"
   y1="93.379997"
   x2="186.39"
   y2="298.89001">
<stop
   offset="0%"
   style="stop-color:rgb(34,163,220);stop-opacity: 1"
   id="stop10" />
<stop
   offset="50%"
   style="stop-color:rgb(16,61,128);stop-opacity: 1"
   id="stop11" />
<stop
   offset="100%"
   style="stop-color:rgb(0,25,89);stop-opacity: 1"
   id="stop12" />
</linearGradient>
<path
   style="opacity:1;fill:url(#SVGID_6_47543);fill-rule:nonzero;stroke:none;stroke-width:0;stroke-linecap:butt;stroke-linejoin:miter;stroke-miterlimit:4;stroke-dasharray:none;stroke-dashoffset:0"
   paint-order="stroke"
   transform="translate(-187.5,-150.135)"
   d="m 222.88,201.69 c -0.76,-26.03 -22.7,-55.04 -34.4,-66.91 l -0.98,-0.99 -0.98,0.99 c -11.7,11.88 -33.64,40.89 -34.4,66.91 h -25.86 c 0.79,-33.3 30.08,-82.69 61.24,-103.11 31.16,20.42 60.44,69.81 61.24,103.11 z"
   stroke-linecap="round"
   id="path12" />
</g>
</g>
</g>
<g
   transform="matrix(1.9211538,0,0,1.9211538,815.64223,152.87985)"
   id="text-logo">
<g
   paint-order="stroke"
   id="g14">
		<g
   id="text-logo-path-0">
<path
   style="opacity:1;fill:#0d3c80;fill-rule:nonzero;stroke:none;stroke-width:0;stroke-linecap:butt;stroke-linejoin:miter;stroke-miterlimit:4;stroke-dasharray:none;stroke-dashoffset:0"
   paint-order="stroke"
   transform="translate(-233.035,35.195)"
   d="m 4.64,-6.96 v 0 l 0.9,-53.67 q 0.1,-2.79 1.94,-4.68 1.85,-1.9 4.65,-2.09 v 0 l 34.14,-1.94 q 1.47,-0.09 2.82,0.43 1.35,0.52 2.37,1.49 1.02,0.97 1.61,2.32 0.59,1.35 0.59,2.82 v 0 l -1.09,55.7 q -0.09,2.79 -2.18,4.83 v 0 q -1.98,1.94 -4.78,1.94 v 0 q -0.14,0 -0.24,0 v 0 l -5.4,-0.1 Q 37.23,0 35.14,-2.08 v 0 q -1.99,-1.99 -1.99,-4.79 v 0 q 0,-0.14 0,-0.23 v 0 l 0.1,-3.08 q 0,-1.47 -1.02,-2.54 -1.02,-1.06 -2.44,-1.06 v 0 h -2.13 q -1.47,0 -2.49,1.02 -1.01,1.01 -1.01,2.48 v 0 l -0.1,3.6 q -0.09,2.89 -2.18,4.93 v 0 Q 19.89,0.19 17.1,0.19 v 0 q -0.14,0 -0.24,0 v 0 l -5.4,-0.1 Q 9.99,0.09 8.79,-0.5 7.58,-1.09 6.61,-2.04 5.64,-2.98 5.14,-4.26 4.64,-5.54 4.64,-6.96 Z m 19.8,-38.56 v 8.96 q 0,1.46 1.02,2.48 1.02,1.02 2.48,1.02 v 0 h 2.33 q 1.46,0 2.48,-0.97 1.02,-0.97 1.02,-2.44 v 0 l 0.09,-9.05 q 0.1,-1.56 -1.01,-2.6 -1.12,-1.04 -2.68,-0.95 v 0 l -2.42,0.1 q -1.37,0.19 -2.34,1.16 -0.97,0.97 -0.97,2.29 z m 51.67,31.26 -1.28,-37.22 q -0.1,-1.47 0.4,-2.73 0.5,-1.25 1.42,-2.22 0.93,-0.97 2.18,-1.61 1.26,-0.64 2.73,-0.64 v 0 l 5.39,-0.19 q 0.15,0 0.24,0 v 0 q 2.7,0 4.69,1.84 v 0 q 2.08,1.95 2.27,4.84 v 0 l 0.95,27.56 q 0,0.95 1,0.95 v 0 l 5.11,-0.1 q 0.95,0 1,-0.94 v 0 -25.53 q 0,-2.89 2.03,-4.93 2.04,-2.03 4.93,-2.03 v 0 h 5.44 q 0.15,0 0.24,0 v 0 q 2.7,0 4.12,1.98 v 0 q 1.47,2.09 1.47,4.88 v 0 l 0.1,35.34 q 0,2.88 -1.47,4.92 -1.47,2.04 -4.27,2.04 v 0 l -31.54,0.47 q -0.14,0 -0.28,0 v 0 q -2.7,0 -4.65,-1.89 v 0 q -2.03,-1.99 -2.22,-4.79 z m 65.45,2.23 v 0 l 2.23,-30.93 q 0.19,-2.7 2.17,-4.5 v 0 q 1.9,-1.7 4.46,-1.7 v 0 q 0.14,0 0.28,0 v 0 l 29.37,1.32 q 1.56,0 1.56,-1.51 v 0 -9.52 q 0,-2.8 1.99,-4.69 1.99,-1.9 4.78,-1.9 v 0 h 5.26 q 2.79,0.1 4.69,2.04 1.89,1.94 1.89,4.64 v 0 l -0.28,52.39 q 0,2.89 -2.23,4.87 v 0 q -1.94,1.76 -4.45,1.76 v 0 q -0.38,0 -0.71,-0.05 v 0 l -45.09,-5.12 q -2.7,-0.28 -4.4,-2.36 v 0 q -1.52,-1.85 -1.52,-4.22 v 0 q 0,-0.24 0,-0.52 z m 19.7,-18.9 -0.28,7.34 q -0.19,1.47 1.32,1.66 v 0 l 17.58,2.04 q 0.75,0.09 1.25,-0.33 0.5,-0.43 0.5,-1.24 v 0 -8.62 q 0,-1.37 -1.47,-1.56 v 0 l -17.24,-0.76 q -1.47,0 -1.66,1.47 z m 60.1,-9.04 v 0 q 0,-0.15 0,-0.29 v 0 q 0,-2.7 1.9,-4.69 v 0 q 1.99,-2.08 4.92,-2.18 v 0 l 5.4,-0.09 q 0.14,0 0.29,0 v 0 q 2.74,0 4.73,1.89 v 0 q 2.09,1.99 2.18,4.88 v 0 l 0.57,29.51 q 0,0.14 0,0.28 v 0 q 0,2.7 -1.89,4.69 v 0 q -1.99,2.09 -4.88,2.18 v 0 l -5.45,0.1 q -0.14,0 -0.28,0 v 0 q -2.7,0 -4.69,-1.9 v 0 q -2.09,-1.99 -2.18,-4.88 v 0 q 0,-0.94 -0.07,-2.79 -0.07,-1.85 -0.12,-4.1 -0.05,-2.25 -0.1,-4.81 -0.04,-2.55 -0.04,-5.06 v 0 q -0.1,-5.92 -0.29,-12.74 z m 1.19,-18.9 v 0 -2.51 q 0,-1.47 1.01,-2.49 1.02,-1.02 2.49,-1.02 v 0 l 12.41,-0.19 q 1.47,0 2.46,1.02 1,1.02 1,2.49 v 0 2.7 q 0,1.47 -1.02,2.48 -1.02,1.02 -2.44,1.02 v 0 h -12.41 q -1.47,0 -2.49,-1.02 -1.01,-1.01 -1.01,-2.48 z m 41.1,14.16 -0.71,-5.16 q -0.04,-0.43 -0.04,-0.81 v 0 q 0,-2.32 1.42,-4.12 v 0 q 1.65,-2.13 4.45,-2.51 v 0 h 0.09 q 0.95,-0.19 1,-1.09 v 0 l -0.1,-0.28 q 0,-0.29 0,-0.52 v 0 q 0,-2.47 1.61,-4.36 v 0 q 1.8,-2.09 4.69,-2.32 v 0 l 7.44,-0.38 q 1.66,-0.1 2.58,0.64 0.92,0.73 1.4,1.68 v 0 q 0.47,1.09 0.71,2.65 v 0 q 0,0.66 0.47,0.76 0.47,0.09 1.19,0 v 0 l 17.61,-1.75 q 0.29,0 0.57,0 v 0 q 2.47,0 4.36,1.51 v 0 q 2.18,1.71 2.46,4.5 v 0 l 0.57,5.26 q 0.05,0.38 0.05,0.76 v 0 q 0.05,2.32 -1.47,4.17 v 0 q -1.7,2.13 -4.59,2.41 v 0 l -17.95,1.85 q -0.67,0 -1.05,0.5 -0.38,0.49 -0.38,1.16 v 0 l 1.24,19.89 q 0.19,0.85 1.09,0.85 v 0 l 7.95,-0.57 2.42,-0.19 q 0.28,0 0.52,0 v 0 q 2.46,0 4.4,1.61 v 0 q 2.14,1.8 2.37,4.6 v 0 l 0.38,5.26 q 0,0.28 0,0.52 v 0 q 0,2.46 -1.61,4.35 v 0 q -1.8,2.09 -4.59,2.28 v 0 l -23.5,1.84 q -0.23,0 -0.52,0 v 0 q -2.46,0 -4.35,-1.65 v 0 q -2.09,-1.85 -2.33,-4.65 v 0 l -2.32,-31.82 q 0,-0.48 -0.33,-0.71 -0.33,-0.24 -0.8,-0.24 v 0 q -2.42,-0.19 -4.22,-1.8 -1.8,-1.61 -2.18,-4.12 z m 72.8,37.94 v 0 l 1.46,-26.91 q 0.19,-2.51 1.99,-4.31 1.8,-1.8 4.41,-1.89 v 0 l 19.89,-0.66 q 0.57,-0.1 1.02,-0.55 0.45,-0.45 0.45,-1.02 v 0 -3.5 q 0,-1.56 -1.56,-1.52 v 0 l -13.22,-0.42 q -2.79,-0.19 -4.64,-2.13 v 0 q -1.75,-1.85 -1.75,-4.46 v 0 q 0,-0.14 0,-0.28 v 0 l 0.09,-4.17 q 0.19,-2.79 2.13,-4.69 v 0 q 1.76,-1.7 4.27,-1.7 v 0 q 0.23,0 0.52,0 v 0 l 26.57,0.76 q 2.79,0.09 4.64,2.03 v 0 q 1.75,1.85 1.75,4.5 v 0 q 0,0.14 0,0.29 v 0 l -1.09,48.16 q -0.09,2.51 -1.77,4.39 -1.68,1.87 -4.19,2.06 v 0 l -33.77,2.98 q -0.24,0 -0.48,0 v 0 q -2.65,0 -4.69,-1.92 -2.03,-1.92 -2.03,-4.57 v 0 q 0,-0.24 0,-0.47 z m 19.23,-16.91 -0.1,6.82 q 0,0.76 0.47,1.18 0.48,0.43 1.28,0.43 v 0 l 6.49,-0.57 q 1.38,-0.19 1.33,-1.56 v 0 -6.49 q 0,-1.66 -1.52,-1.66 v 0 l -6.39,0.33 q -1.56,0 -1.56,1.52 z m 49.86,15.58 v 0 q 0,-1.51 0.76,-2.84 v 0 q 0.67,-1.28 1.73,-3.51 1.07,-2.22 2.32,-4.85 1.26,-2.63 2.58,-5.4 1.33,-2.77 2.4,-5 1.06,-2.22 1.72,-3.71 0.67,-1.5 0.76,-1.69 v 0 q 0.43,-0.75 0.43,-1.58 0,-0.83 -0.43,-1.64 v 0 q -0.19,-0.38 -1.16,-2.22 -0.97,-1.85 -2.27,-4.43 -1.3,-2.58 -2.75,-5.52 -1.44,-2.94 -2.72,-5.47 -1.28,-2.53 -2.16,-4.24 -0.87,-1.7 -0.87,-1.89 v 0 q -0.15,-0.67 -0.15,-1.28 v 0 q 0,-1.8 1.05,-3.32 v 0 q 1.37,-2.08 3.88,-2.56 v 0 l 6.11,-1.27 q 0.71,-0.15 1.42,-0.15 v 0 q 2.08,0 3.88,1.24 v 0 q 2.47,1.61 2.94,4.45 v 0 l 5.73,19.37 q 0.19,0.66 0.85,0.73 0.67,0.07 1,-0.64 v 0 l 10.28,-20.65 v -0.09 q 1.09,-2.61 3.74,-3.74 v 0 q 1.37,-0.57 2.75,-0.57 v 0 q 1.27,0 2.51,0.52 v 0 q 0.37,0.19 1.2,0.54 0.83,0.36 1.73,0.74 v 0 q 1.09,0.38 2.23,0.85 v 0 q 2.65,1.14 3.79,3.79 v 0 q 0.57,1.37 0.61,2.75 v 0 q 0,1.28 -0.52,2.6 v 0 l -13.97,22.31 q -0.62,0.99 -0.62,1.94 v 0 q 0,0.57 0.24,1.14 v 0 l 7.72,23.68 q 0.38,1.09 0.38,2.23 v 0 q 0,0.47 -0.05,0.9 v 0 q -0.23,1.56 -0.99,2.86 -0.76,1.3 -2.09,2.18 -1.32,0.88 -2.84,1.07 v 0 l -4.17,0.56 q -0.61,0.1 -1.18,0.1 v 0 q -2.13,0 -3.93,-1.33 v 0 q -2.27,-1.7 -2.75,-4.5 v 0 l -4.59,-21.93 q -0.19,-0.75 -0.97,-0.8 -0.78,-0.05 -0.97,0.71 v 0 l -7.25,22.92 q -0.81,2.66 -3.27,4.08 v 0 q -1.61,0.9 -3.27,0.94 v 0 q -0.9,0 -1.89,-0.28 v 0 l -3.7,-1.09 q -1.65,-0.38 -2.79,-1.47 v 0 q -1.23,-1.04 -1.8,-2.37 v 0 q -0.66,-1.51 -0.62,-3.17 z"
   stroke-linecap="round"
   id="path13" />
</g>
</g>
</g>
</svg>
