<?xml version="1.0" encoding="UTF-8" standalone="no" ?>
<!DOCTYPE svg PUBLIC "-//W3C//DTD SVG 1.1//EN" "http://www.w3.org/Graphics/SVG/1.1/DTD/svg11.dtd">
<svg xmlns="http://www.w3.org/2000/svg" xmlns:xlink="http://www.w3.org/1999/xlink" version="1.1" width="1280" height="1024" viewBox="0 0 1280 1024" xml:space="preserve">
<desc>Created with Fabric.js 5.3.0</desc>
<defs>
</defs>
<g transform="matrix(1 0 0 1 640 512)" id="background-logo"  >
<rect style="stroke: none; stroke-width: 0; stroke-dasharray: none; stroke-linecap: butt; stroke-dashoffset: 0; stroke-linejoin: miter; stroke-miterlimit: 4; fill: rgb(255,255,255); fill-opacity: 0; fill-rule: nonzero; opacity: 1;"  paint-order="stroke"  x="-640" y="-512" rx="0" ry="0" width="1280" height="1024" />
</g>
<g transform="matrix(4.502688321358699 0 0 4.502688321358699 638.8101197467896 387.82221306102656)" id="logo-logo"  >
<g style=""  paint-order="stroke"   >
		<g transform="matrix(1.562342115306836 0 0 1.562342115306836 -0.0078117105765613815 44.78453673527042)"  >
<radialGradient id="SVGID_2_30525" gradientUnits="userSpaceOnUse" gradientTransform="matrix(1 0 0 1 0 0)"  cx="186.83" cy="189.8" r="74.89" fx="186.83" fy="189.8">
<stop offset="0%" style="stop-color:rgb(13,60,128);stop-opacity: 1"/>
<stop offset="99%" style="stop-color:rgb(0,12,56);stop-opacity: 1"/>
</radialGradient>
<path style="stroke: none; stroke-width: 0; stroke-dasharray: none; stroke-linecap: butt; stroke-dashoffset: 0; stroke-linejoin: miter; stroke-miterlimit: 4; fill: url(#SVGID_2_30525); fill-rule: nonzero; opacity: 1;"  paint-order="stroke"  transform=" translate(-187.495, -178.67000000000002)" d="M 187.5 154.28 C 183.76 154.79 180.18 155.51 176.75 156.42 C 153.54 164.79999999999998 134.42000000000002 180.45 124.87 203.06 L 153.47 203.06 C 154.23 198.15 157.17 193.37 163.29 190 C 170.7 183.98 180.44 180.11 187.5 179.66 C 195.38 180.16 206.59 184.92 214.18 192.18 C 218.64000000000001 194.4 220.78 198.87 221.52 203.06 L 250.12 203.06 C 240.18 179.54 221.78 163.08 195.14000000000001 155.66 C 192.70000000000002 154.98 190.12 154.64 187.49 154.28 Z" stroke-linecap="round" />
</g>
		<g transform="matrix(1.562342115306836 0 0 1.562342115306836 0 44.80016015642343)"  >
<radialGradient id="SVGID_3_30526" gradientUnits="userSpaceOnUse" gradientTransform="matrix(1 0 0 1 0 0)"  cx="188.01" cy="159.33" r="48.04" fx="188.01" fy="159.33">
<stop offset="0%" style="stop-color:rgb(13,60,128);stop-opacity: 1"/>
<stop offset="99%" style="stop-color:rgb(0,12,56);stop-opacity: 1"/>
</radialGradient>
<path style="stroke: none; stroke-width: 0; stroke-dasharray: none; stroke-linecap: butt; stroke-dashoffset: 0; stroke-linejoin: miter; stroke-miterlimit: 4; fill: url(#SVGID_3_30526); fill-rule: nonzero; opacity: 1;"  paint-order="stroke"  transform=" translate(-187.5, -178.68)" d="M 222.49 201.69 C 217.25 188.2 198.85000000000002 179.01 187.59 178.3 L 187.5 178.3 C 187.5 178.3 187.41 178.3 187.41 178.3 C 176.14 179.01000000000002 157.75 188.20000000000002 152.51 201.69 L 126.97 201.69 C 138.72 175.43 159.6 159.54 187.5 155.67 C 215.4 159.54 236.28 175.42999999999998 248.03 201.69 L 222.49 201.69 Z" stroke-linecap="round" />
</g>
		<g transform="matrix(1.562342115306836 0 0 1.562342115306836 -0.0078117105765613815 45.885987926561825)"  >
<radialGradient id="SVGID_4_30527" gradientUnits="userSpaceOnUse" gradientTransform="matrix(1 0 0 1 0 0)"  cx="189.36" cy="146.67" r="61.93" fx="189.36" fy="146.67">
<stop offset="1%" style="stop-color:rgb(8,59,106);stop-opacity: 1"/>
<stop offset="100%" style="stop-color:rgb(0,11,55);stop-opacity: 1"/>
</radialGradient>
<path style="stroke: none; stroke-width: 0; stroke-dasharray: none; stroke-linecap: butt; stroke-dashoffset: 0; stroke-linejoin: miter; stroke-miterlimit: 4; fill: url(#SVGID_4_30527); fill-rule: nonzero; opacity: 1;"  paint-order="stroke"  transform=" translate(-187.495, -179.3750000000001)" d="M 153.47 203.06 L 124.87 203.06 C 128.70000000000002 193.99 135.31 184.13 143.43 175.2 C 152.3 166.5 163.36 159.98999999999998 176.75 156.42999999999998 C 166.54 165.64999999999998 163.94 180.02999999999997 163.29 190.01 C 158.79 193.66 155.14999999999998 198.10999999999999 153.47 203.06 Z M 248.51 199.45 C 248.41 199.23999999999998 248.31 199.03 248.20999999999998 198.82 C 247.67 197.68 247.09999999999997 196.56 246.51 195.45999999999998 C 246.42 195.29 246.32999999999998 195.12999999999997 246.23999999999998 194.95999999999998 C 246.20999999999998 194.90999999999997 246.18999999999997 194.86999999999998 246.17 194.82 C 245.55999999999997 193.69 244.92999999999998 192.57 244.28 191.48 C 244.24 191.41 244.2 191.35 244.16 191.28 C 243.52 190.22 242.85999999999999 189.18 242.18 188.15 C 242.07 187.98000000000002 241.96 187.81 241.84 187.64000000000001 C 241.15 186.61 240.44 185.61 239.71 184.62 C 239.66 184.56 239.61 184.49 239.57000000000002 184.43 C 239.47000000000003 184.3 239.37000000000003 184.17000000000002 239.28000000000003 184.04000000000002 C 238.53000000000003 183.04000000000002 237.77000000000004 182.06000000000003 236.97000000000003 181.10000000000002 C 236.89000000000001 181.00000000000003 236.80000000000004 180.91000000000003 236.72000000000003 180.81000000000003 C 235.95000000000002 179.89000000000004 235.16000000000003 178.99000000000004 234.35000000000002 178.11000000000004 C 234.34000000000003 178.10000000000005 234.33 178.08000000000004 234.31000000000003 178.07000000000005 C 234.21000000000004 177.96000000000004 234.10000000000002 177.84000000000006 234.00000000000003 177.73000000000005 C 233.16000000000003 176.83000000000004 232.30000000000004 175.95000000000005 231.42000000000002 175.09000000000006 C 231.25000000000003 174.92000000000007 231.07000000000002 174.75000000000006 230.9 174.59000000000006 C 230.01000000000002 173.74000000000007 229.1 172.90000000000006 228.17000000000002 172.09000000000006 C 228.06 172.00000000000006 227.95000000000002 171.91000000000005 227.84 171.81000000000006 C 227.82 171.80000000000007 227.8 171.78000000000006 227.79 171.77000000000007 C 226.88 170.99000000000007 225.94 170.23000000000008 224.98999999999998 169.49000000000007 C 224.89 169.41000000000005 224.79 169.33000000000007 224.67999999999998 169.25000000000006 C 223.68999999999997 168.49000000000007 222.65999999999997 167.76000000000005 221.61999999999998 167.05000000000007 C 221.50999999999996 166.98000000000008 221.40999999999997 166.90000000000006 221.29999999999998 166.83000000000007 C 221.20999999999998 166.77000000000007 221.11999999999998 166.71000000000006 221.01999999999998 166.64000000000007 C 219.98 165.95000000000007 218.92999999999998 165.27000000000007 217.85 164.63000000000008 C 217.81 164.61000000000007 217.76999999999998 164.58000000000007 217.73 164.5600000000001 C 217.6 164.48000000000008 217.47 164.41000000000008 217.34 164.3400000000001 C 216.26 163.7100000000001 215.15 163.0900000000001 214.03 162.51000000000008 C 214.03 162.51000000000008 214.02 162.51000000000008 214.01 162.50000000000009 C 213.95 162.47000000000008 213.89 162.4300000000001 213.82 162.4000000000001 C 212.66 161.8000000000001 211.47 161.2400000000001 210.26999999999998 160.7000000000001 C 210.15999999999997 160.6500000000001 210.05999999999997 160.6100000000001 209.95 160.56000000000012 C 209.82999999999998 160.5100000000001 209.72 160.46000000000012 209.6 160.40000000000012 C 208.41 159.8800000000001 207.21 159.39000000000013 205.98 158.92000000000013 C 205.94 158.90000000000012 205.89 158.89000000000013 205.85 158.87000000000012 C 202.45 157.59000000000012 198.88 156.53000000000011 195.14 155.68000000000012 C 206.5 162.99000000000012 211.2 180.80000000000013 214.17999999999998 192.20000000000013 C 217.01999999999998 194.91000000000014 219.34999999999997 197.97000000000014 220.81999999999996 201.29000000000013 C 220.86999999999998 201.40000000000015 220.91999999999996 201.52000000000012 220.96999999999997 201.63000000000014 C 220.96999999999997 201.63000000000014 220.96999999999997 201.63000000000014 220.96999999999997 201.63000000000014 C 221.16999999999996 202.11000000000013 221.35999999999996 202.59000000000015 221.51999999999998 203.07000000000014 L 250.11999999999998 203.07000000000014 C 249.59999999999997 201.85000000000014 249.05999999999997 200.65000000000015 248.49999999999997 199.46000000000012 Z" stroke-linecap="round" />
</g>
		<g transform="matrix(1.562342115306836 0 0 1.562342115306836 0 -0.007811710576618225)"  >
<linearGradient id="SVGID_5_30528" gradientUnits="userSpaceOnUse" gradientTransform="matrix(1 0 0 1 0 0)"  x1="149.34" y1="96.16" x2="199.82" y2="227.75">
<stop offset="0%" style="stop-color:rgb(34,163,220);stop-opacity: 1"/>
<stop offset="50%" style="stop-color:rgb(16,61,128);stop-opacity: 1"/>
<stop offset="100%" style="stop-color:rgb(0,25,89);stop-opacity: 1"/>
</linearGradient>
<path style="stroke: none; stroke-width: 0; stroke-dasharray: none; stroke-linecap: butt; stroke-dashoffset: 0; stroke-linejoin: miter; stroke-miterlimit: 4; fill: url(#SVGID_5_30528); fill-rule: nonzero; opacity: 1;"  paint-order="stroke"  transform=" translate(-187.5, -150)" d="M 187.5 96.94 C 220.05 117.77 250.13 168.82999999999998 250.13 203.06 L 221.53 203.06 C 221.53 177.39 199.59 148 187.5 135.74 C 175.42 148.01000000000002 153.47 177.39000000000001 153.47 203.06 L 124.87 203.06 C 124.87 168.83 154.95 117.76 187.5 96.94 Z" stroke-linecap="round" />
</g>
		<g transform="matrix(1.562342115306836 0 0 1.562342115306836 0 0.2031044749897717)"  >
<linearGradient id="SVGID_6_30529" gradientUnits="userSpaceOnUse" gradientTransform="matrix(1 0 0 1 0 0)"  x1="188.74" y1="93.38" x2="186.39" y2="298.89">
<stop offset="0%" style="stop-color:rgb(34,163,220);stop-opacity: 1"/>
<stop offset="50%" style="stop-color:rgb(16,61,128);stop-opacity: 1"/>
<stop offset="100%" style="stop-color:rgb(0,25,89);stop-opacity: 1"/>
</linearGradient>
<path style="stroke: none; stroke-width: 0; stroke-dasharray: none; stroke-linecap: butt; stroke-dashoffset: 0; stroke-linejoin: miter; stroke-miterlimit: 4; fill: url(#SVGID_6_30529); fill-rule: nonzero; opacity: 1;"  paint-order="stroke"  transform=" translate(-187.5, -150.135)" d="M 222.88 201.69 C 222.12 175.66 200.18 146.65 188.48 134.78 L 187.5 133.79 L 186.52 134.78 C 174.82000000000002 146.66 152.88 175.67000000000002 152.12 201.69 L 126.26 201.69 C 127.05000000000001 168.39 156.34 119 187.5 98.58 C 218.66 119 247.94 168.39 248.74 201.69 L 222.88 201.69 Z" stroke-linecap="round" />
</g>
</g>
</g>
<g transform="matrix(1.9211538461538462 0 0 1.9211538461538462 638.5775189194022 872.9272513805715)" id="text-logo"  >
<g style=""  paint-order="stroke"   >
		<g transform="matrix(1 0 0 1 0 0)" id="text-logo-path-0"  >
<path style="stroke: none; stroke-width: 0; stroke-dasharray: none; stroke-linecap: butt; stroke-dashoffset: 0; stroke-linejoin: miter; stroke-miterlimit: 4; fill: rgb(13,60,128); fill-rule: nonzero; opacity: 1;"  paint-order="stroke"  transform=" translate(-242.645, 36.64)" d="M 4.83 -7.25 L 4.83 -7.25 L 5.77 -63.13 Q 5.87 -66.03 7.79 -68.01 Q 9.72 -69.98 12.63 -70.18 L 12.63 -70.18 L 48.18 -72.2 Q 49.71 -72.3 51.12 -71.76 Q 52.52 -71.21 53.58 -70.2 Q 54.64 -69.19 55.26 -67.79 Q 55.88 -66.38 55.88 -64.85 L 55.88 -64.85 L 54.74 -6.85 Q 54.64 -3.95 52.47 -1.82 L 52.47 -1.82 Q 50.4 0.2 47.49 0.2 L 47.49 0.2 Q 47.34 0.2 47.25 0.2 L 47.25 0.2 L 41.62 0.1 Q 38.76 0 36.59 -2.17 L 36.59 -2.17 Q 34.52 -4.24 34.52 -7.15 L 34.52 -7.15 Q 34.52 -7.3 34.52 -7.4 L 34.52 -7.4 L 34.62 -10.6 Q 34.62 -12.13 33.56 -13.24 Q 32.5 -14.35 31.02 -14.35 L 31.02 -14.35 L 28.8 -14.35 Q 27.27 -14.35 26.21 -13.29 Q 25.15 -12.23 25.15 -10.7 L 25.15 -10.7 L 25.05 -6.95 Q 24.95 -3.95 22.78 -1.82 L 22.78 -1.82 Q 20.71 0.2 17.8 0.2 L 17.8 0.2 Q 17.66 0.2 17.56 0.2 L 17.56 0.2 L 11.93 0.1 Q 10.41 0.1 9.15 -0.52 Q 7.89 -1.13 6.88 -2.12 Q 5.87 -3.11 5.35 -4.44 Q 4.83 -5.77 4.83 -7.25 Z M 25.45 -47.39 L 25.45 -38.07 Q 25.45 -36.54 26.51 -35.48 Q 27.57 -34.42 29.1 -34.42 L 29.1 -34.42 L 31.51 -34.42 Q 33.04 -34.42 34.1 -35.43 Q 35.16 -36.44 35.16 -37.97 L 35.16 -37.97 L 35.26 -47.39 Q 35.36 -49.02 34.2 -50.11 Q 33.04 -51.19 31.41 -51.09 L 31.41 -51.09 L 28.9 -50.99 Q 27.47 -50.8 26.46 -49.78 Q 25.45 -48.77 25.45 -47.39 L 25.45 -47.39 Z M 79.25 -14.84 L 77.92 -53.61 Q 77.82 -55.14 78.33 -56.44 Q 78.85 -57.75 79.81 -58.76 Q 80.78 -59.77 82.08 -60.44 Q 83.39 -61.1 84.92 -61.1 L 84.92 -61.1 L 90.54 -61.3 Q 90.69 -61.3 90.79 -61.3 L 90.79 -61.3 Q 93.6 -61.3 95.67 -59.38 L 95.67 -59.38 Q 97.84 -57.35 98.04 -54.35 L 98.04 -54.35 L 99.02 -25.64 Q 99.02 -24.66 100.06 -24.66 L 100.06 -24.66 L 105.38 -24.76 Q 106.37 -24.76 106.42 -25.74 L 106.42 -25.74 L 106.42 -52.32 Q 106.42 -55.33 108.54 -57.45 Q 110.66 -59.57 113.67 -59.57 L 113.67 -59.57 L 119.34 -59.57 Q 119.49 -59.57 119.59 -59.57 L 119.59 -59.57 Q 122.4 -59.57 123.88 -57.5 L 123.88 -57.5 Q 125.41 -55.33 125.41 -52.42 L 125.41 -52.42 L 125.51 -15.63 Q 125.51 -12.63 123.98 -10.5 Q 122.45 -8.38 119.54 -8.38 L 119.54 -8.38 L 86.69 -7.89 Q 86.55 -7.89 86.4 -7.89 L 86.4 -7.89 Q 83.59 -7.89 81.56 -9.86 L 81.56 -9.86 Q 79.44 -11.93 79.25 -14.84 L 79.25 -14.84 Z M 147.4 -12.53 L 147.4 -12.53 L 149.72 -44.73 Q 149.91 -47.54 151.98 -49.42 L 151.98 -49.42 Q 153.96 -51.19 156.62 -51.19 L 156.62 -51.19 Q 156.77 -51.19 156.92 -51.19 L 156.92 -51.19 L 187.49 -49.81 Q 189.12 -49.81 189.12 -51.39 L 189.12 -51.39 L 189.12 -61.3 Q 189.12 -64.21 191.19 -66.18 Q 193.26 -68.16 196.17 -68.16 L 196.17 -68.16 L 201.65 -68.16 Q 204.55 -68.06 206.53 -66.03 Q 208.5 -64.01 208.5 -61.2 L 208.5 -61.2 L 208.2 -6.66 Q 208.2 -3.65 205.89 -1.58 L 205.89 -1.58 Q 203.86 0.25 201.25 0.25 L 201.25 0.25 Q 200.86 0.25 200.51 0.2 L 200.51 0.2 L 153.56 -5.13 Q 150.75 -5.42 148.98 -7.59 L 148.98 -7.59 Q 147.4 -9.52 147.4 -11.98 L 147.4 -11.98 Q 147.4 -12.23 147.4 -12.53 Z M 167.91 -32.2 L 167.62 -24.56 Q 167.42 -23.03 169 -22.83 L 169 -22.83 L 187.29 -20.71 Q 188.08 -20.61 188.6 -21.06 Q 189.12 -21.5 189.12 -22.34 L 189.12 -22.34 L 189.12 -31.32 Q 189.12 -32.75 187.59 -32.94 L 187.59 -32.94 L 169.64 -33.73 Q 168.11 -33.73 167.91 -32.2 L 167.91 -32.2 Z M 230.49 -41.62 L 230.49 -41.62 Q 230.49 -41.77 230.49 -41.92 L 230.49 -41.92 Q 230.49 -44.73 232.46 -46.8 L 232.46 -46.8 Q 234.53 -48.97 237.59 -49.07 L 237.59 -49.07 L 243.21 -49.17 Q 243.36 -49.17 243.51 -49.17 L 243.51 -49.17 Q 246.37 -49.17 248.44 -47.2 L 248.44 -47.2 Q 250.61 -45.12 250.71 -42.12 L 250.71 -42.12 L 251.3 -11.39 Q 251.3 -11.24 251.3 -11.1 L 251.3 -11.1 Q 251.3 -8.29 249.33 -6.21 L 249.33 -6.21 Q 247.26 -4.04 244.25 -3.95 L 244.25 -3.95 L 238.58 -3.85 Q 238.43 -3.85 238.28 -3.85 L 238.28 -3.85 Q 235.47 -3.85 233.4 -5.82 L 233.4 -5.82 Q 231.23 -7.89 231.13 -10.9 L 231.13 -10.9 Q 231.13 -11.89 231.06 -13.81 Q 230.98 -15.73 230.93 -18.07 Q 230.89 -20.42 230.84 -23.08 Q 230.79 -25.74 230.79 -28.36 L 230.79 -28.36 Q 230.69 -34.52 230.49 -41.62 Z M 231.72 -61.3 L 231.72 -61.3 L 231.72 -63.91 Q 231.72 -65.44 232.78 -66.5 Q 233.84 -67.56 235.37 -67.56 L 235.37 -67.56 L 248.29 -67.76 Q 249.82 -67.76 250.86 -66.7 Q 251.89 -65.64 251.89 -64.11 L 251.89 -64.11 L 251.89 -61.3 Q 251.89 -59.77 250.83 -58.71 Q 249.77 -57.65 248.29 -57.65 L 248.29 -57.65 L 235.37 -57.65 Q 233.84 -57.65 232.78 -58.71 Q 231.72 -59.77 231.72 -61.3 Z M 274.53 -46.55 L 273.79 -51.93 Q 273.74 -52.37 273.74 -52.77 L 273.74 -52.77 Q 273.74 -55.19 275.22 -57.06 L 275.22 -57.06 Q 276.94 -59.28 279.85 -59.67 L 279.85 -59.67 L 279.95 -59.67 Q 280.94 -59.87 280.99 -60.81 L 280.99 -60.81 L 280.89 -61.1 Q 280.89 -61.4 280.89 -61.65 L 280.89 -61.65 Q 280.89 -64.21 282.56 -66.18 L 282.56 -66.18 Q 284.44 -68.35 287.45 -68.6 L 287.45 -68.6 L 295.19 -68.99 Q 296.92 -69.09 297.88 -68.33 Q 298.84 -67.56 299.33 -66.58 L 299.33 -66.58 Q 299.82 -65.44 300.07 -63.82 L 300.07 -63.82 Q 300.07 -63.13 300.56 -63.03 Q 301.06 -62.93 301.8 -63.03 L 301.8 -63.03 L 320.14 -64.85 Q 320.44 -64.85 320.73 -64.85 L 320.73 -64.85 Q 323.3 -64.85 325.27 -63.27 L 325.27 -63.27 Q 327.54 -61.5 327.84 -58.59 L 327.84 -58.59 L 328.43 -53.11 Q 328.48 -52.72 328.48 -52.32 L 328.48 -52.32 Q 328.53 -49.91 326.95 -47.98 L 326.95 -47.98 Q 325.17 -45.77 322.17 -45.47 L 322.17 -45.47 L 303.47 -43.55 Q 302.78 -43.55 302.39 -43.03 Q 301.99 -42.51 301.99 -41.82 L 301.99 -41.82 L 303.28 -21.11 Q 303.47 -20.22 304.41 -20.22 L 304.41 -20.22 L 312.7 -20.81 L 315.21 -21.01 Q 315.51 -21.01 315.75 -21.01 L 315.75 -21.01 Q 318.32 -21.01 320.34 -19.33 L 320.34 -19.33 Q 322.56 -17.46 322.81 -14.55 L 322.81 -14.55 L 323.2 -9.07 Q 323.2 -8.78 323.2 -8.53 L 323.2 -8.53 Q 323.2 -5.97 321.52 -3.99 L 321.52 -3.99 Q 319.65 -1.82 316.74 -1.63 L 316.74 -1.63 L 292.28 0.3 Q 292.03 0.3 291.74 0.3 L 291.74 0.3 Q 289.17 0.3 287.2 -1.43 L 287.2 -1.43 Q 285.03 -3.35 284.78 -6.26 L 284.78 -6.26 L 282.37 -39.4 Q 282.37 -39.9 282.02 -40.14 Q 281.68 -40.39 281.18 -40.39 L 281.18 -40.39 Q 278.67 -40.59 276.79 -42.26 Q 274.92 -43.94 274.53 -46.55 L 274.53 -46.55 Z M 350.32 -7.05 L 350.32 -7.05 L 351.85 -35.06 Q 352.05 -37.68 353.92 -39.55 Q 355.79 -41.43 358.51 -41.52 L 358.51 -41.52 L 379.22 -42.21 Q 379.81 -42.31 380.28 -42.78 Q 380.75 -43.25 380.75 -43.84 L 380.75 -43.84 L 380.75 -47.49 Q 380.75 -49.12 379.12 -49.07 L 379.12 -49.07 L 365.36 -49.51 Q 362.45 -49.71 360.53 -51.73 L 360.53 -51.73 Q 358.7 -53.66 358.7 -56.37 L 358.7 -56.37 Q 358.7 -56.52 358.7 -56.66 L 358.7 -56.66 L 358.8 -61 Q 359 -63.91 361.02 -65.89 L 361.02 -65.89 Q 362.85 -67.66 365.46 -67.66 L 365.46 -67.66 Q 365.71 -67.66 366 -67.66 L 366 -67.66 L 393.67 -66.87 Q 396.58 -66.77 398.5 -64.75 L 398.5 -64.75 Q 400.33 -62.83 400.33 -60.07 L 400.33 -60.07 Q 400.33 -59.92 400.33 -59.77 L 400.33 -59.77 L 399.19 -9.62 Q 399.09 -7 397.34 -5.05 Q 395.59 -3.11 392.98 -2.91 L 392.98 -2.91 L 357.82 0.2 Q 357.57 0.2 357.32 0.2 L 357.32 0.2 Q 354.56 0.2 352.44 -1.8 Q 350.32 -3.8 350.32 -6.56 L 350.32 -6.56 Q 350.32 -6.81 350.32 -7.05 Z M 370.34 -24.66 L 370.24 -17.56 Q 370.24 -16.77 370.74 -16.32 Q 371.23 -15.88 372.07 -15.88 L 372.07 -15.88 L 378.82 -16.47 Q 380.26 -16.67 380.21 -18.1 L 380.21 -18.1 L 380.21 -24.86 Q 380.21 -26.58 378.63 -26.58 L 378.63 -26.58 L 371.97 -26.24 Q 370.34 -26.24 370.34 -24.66 L 370.34 -24.66 Z M 422.27 -8.43 L 422.27 -8.43 Q 422.27 -10.01 423.06 -11.39 L 423.06 -11.39 Q 423.75 -12.72 424.86 -15.04 Q 425.97 -17.36 427.27 -20.1 Q 428.58 -22.83 429.96 -25.72 Q 431.34 -28.6 432.45 -30.92 Q 433.56 -33.24 434.25 -34.79 Q 434.94 -36.35 435.04 -36.54 L 435.04 -36.54 Q 435.48 -37.33 435.48 -38.2 Q 435.48 -39.06 435.04 -39.9 L 435.04 -39.9 Q 434.84 -40.29 433.83 -42.21 Q 432.82 -44.14 431.47 -46.83 Q 430.11 -49.51 428.61 -52.57 Q 427.1 -55.63 425.77 -58.27 Q 424.44 -60.91 423.53 -62.68 Q 422.61 -64.46 422.61 -64.65 L 422.61 -64.65 Q 422.47 -65.34 422.47 -65.99 L 422.47 -65.99 Q 422.47 -67.86 423.55 -69.44 L 423.55 -69.44 Q 424.98 -71.61 427.59 -72.1 L 427.59 -72.1 L 433.96 -73.43 Q 434.7 -73.58 435.44 -73.58 L 435.44 -73.58 Q 437.61 -73.58 439.48 -72.3 L 439.48 -72.3 Q 442.04 -70.62 442.54 -67.66 L 442.54 -67.66 L 448.5 -47.49 Q 448.7 -46.8 449.39 -46.73 Q 450.08 -46.65 450.43 -47.39 L 450.43 -47.39 L 461.13 -68.9 L 461.13 -68.99 Q 462.26 -71.71 465.03 -72.89 L 465.03 -72.89 Q 466.46 -73.48 467.89 -73.48 L 467.89 -73.48 Q 469.22 -73.48 470.5 -72.94 L 470.5 -72.94 Q 470.89 -72.74 471.76 -72.37 Q 472.62 -72 473.56 -71.61 L 473.56 -71.61 Q 474.69 -71.21 475.87 -70.72 L 475.87 -70.72 Q 478.64 -69.54 479.82 -66.77 L 479.82 -66.77 Q 480.41 -65.34 480.46 -63.91 L 480.46 -63.91 Q 480.46 -62.58 479.92 -61.2 L 479.92 -61.2 L 465.37 -37.97 Q 464.73 -36.94 464.73 -35.95 L 464.73 -35.95 Q 464.73 -35.36 464.98 -34.77 L 464.98 -34.77 L 473.01 -10.11 Q 473.41 -8.98 473.41 -7.79 L 473.41 -7.79 Q 473.41 -7.3 473.36 -6.85 L 473.36 -6.85 Q 473.11 -5.23 472.32 -3.87 Q 471.54 -2.52 470.15 -1.6 Q 468.77 -0.69 467.2 -0.49 L 467.2 -0.49 L 462.86 0.1 Q 462.21 0.2 461.62 0.2 L 461.62 0.2 Q 459.4 0.2 457.53 -1.18 L 457.53 -1.18 Q 455.16 -2.96 454.67 -5.87 L 454.67 -5.87 L 449.89 -28.7 Q 449.69 -29.49 448.87 -29.54 Q 448.06 -29.59 447.86 -28.8 L 447.86 -28.8 L 440.32 -4.93 Q 439.48 -2.17 436.91 -0.69 L 436.91 -0.69 Q 435.24 0.25 433.51 0.3 L 433.51 0.3 Q 432.58 0.3 431.54 0 L 431.54 0 L 427.69 -1.13 Q 425.97 -1.53 424.78 -2.66 L 424.78 -2.66 Q 423.5 -3.75 422.91 -5.13 L 422.91 -5.13 Q 422.22 -6.71 422.27 -8.43 Z" stroke-linecap="round" />
</g>
</g>
</g>
</svg>